<svg width="20" height="20" viewBox="0 0 20 20" fill="none" xmlns="http://www.w3.org/2000/svg">
<path fill-rule="evenodd" clip-rule="evenodd" d="M8.9494 6.10103C9.23065 5.82013 9.6119 5.66235 10.0094 5.66235C10.4069 5.66235 10.7882 5.82013 11.0694 6.10103L16.7274 11.757C16.8667 11.8964 16.9771 12.0618 17.0525 12.2438C17.1278 12.4258 17.1666 12.6209 17.1665 12.8179C17.1665 13.0149 17.1276 13.2099 17.0522 13.3919C16.9768 13.5739 16.8662 13.7393 16.7269 13.8785C16.5876 14.0178 16.4222 14.1283 16.2401 14.2036C16.0581 14.279 15.863 14.3177 15.666 14.3177C15.469 14.3176 15.274 14.2788 15.092 14.2033C14.91 14.1279 14.7447 14.0174 14.6054 13.878L10.0094 9.28303L5.4134 13.879C5.2751 14.0224 5.10964 14.1367 4.92667 14.2154C4.7437 14.2941 4.54689 14.3356 4.34772 14.3374C4.14855 14.3392 3.95102 14.3014 3.76664 14.226C3.58226 14.1507 3.41473 14.0394 3.27382 13.8986C3.13292 13.7579 3.02146 13.5904 2.94595 13.4061C2.87045 13.2218 2.8324 13.0243 2.83403 12.8251C2.83567 12.626 2.87696 12.4291 2.95548 12.2461C3.03401 12.063 3.1482 11.8975 3.2914 11.759L8.9494 6.10103Z" fill="#111111"/>
</svg>
