<svg width="49" height="49" viewBox="0 0 49 49" fill="none" xmlns="http://www.w3.org/2000/svg">
<path d="M35.7038 12.7849C35.5354 12.6162 35.3353 12.4823 35.1151 12.3909C34.8949 12.2996 34.6588 12.2526 34.4204 12.2526C34.182 12.2526 33.9459 12.2996 33.7257 12.3909C33.5055 12.4823 33.3054 12.6162 33.137 12.7849L24.2354 21.6684L15.3337 12.7667C15.1651 12.5982 14.9651 12.4645 14.7449 12.3733C14.5247 12.2821 14.2887 12.2351 14.0503 12.2351C13.812 12.2351 13.576 12.2821 13.3558 12.3733C13.1356 12.4645 12.9355 12.5982 12.7669 12.7667C12.5984 12.9353 12.4647 13.1353 12.3735 13.3555C12.2823 13.5757 12.2354 13.8118 12.2354 14.0501C12.2354 14.2884 12.2823 14.5245 12.3735 14.7447C12.4647 14.9649 12.5984 15.1649 12.7669 15.3335L21.6686 24.2351L12.7669 33.1368C12.5984 33.3053 12.4647 33.5054 12.3735 33.7256C12.2823 33.9458 12.2354 34.1818 12.2354 34.4202C12.2354 34.6585 12.2823 34.8945 12.3735 35.1147C12.4647 35.3349 12.5984 35.535 12.7669 35.7035C12.9355 35.8721 13.1356 36.0058 13.3558 36.097C13.576 36.1882 13.812 36.2351 14.0503 36.2351C14.2887 36.2351 14.5247 36.1882 14.7449 36.097C14.9651 36.0058 15.1651 35.8721 15.3337 35.7035L24.2354 26.8019L33.137 35.7035C33.3056 35.8721 33.5056 36.0058 33.7258 36.097C33.946 36.1882 34.182 36.2351 34.4204 36.2351C34.6587 36.2351 34.8947 36.1882 35.1149 36.097C35.3351 36.0058 35.5352 35.8721 35.7038 35.7035C35.8723 35.535 36.006 35.3349 36.0972 35.1147C36.1884 34.8945 36.2354 34.6585 36.2354 34.4202C36.2354 34.1818 36.1884 33.9458 36.0972 33.7256C36.006 33.5054 35.8723 33.3053 35.7038 33.1368L26.8021 24.2351L35.7038 15.3335C36.3955 14.6417 36.3955 13.4767 35.7038 12.7849Z" fill="#111111"/>
</svg>
