<svg width="32" height="32" viewBox="0 0 32 32" fill="none" xmlns="http://www.w3.org/2000/svg">
<rect width="32" height="32" rx="16" fill="white" fill-opacity="0.5"/>
<path fill-rule="evenodd" clip-rule="evenodd" d="M16.0313 24.3317C13.7843 24.2994 11.6397 23.3871 10.0579 21.7909C9.28482 21.011 8.6752 20.0846 8.26479 19.0661C7.85439 18.0475 7.65147 16.9573 7.66792 15.8592C7.71992 13.6673 8.63798 11.5852 10.2213 10.0684C11.8243 8.53254 13.957 7.67254 16.1771 7.66675H16.3238C18.3612 7.67686 20.3235 8.43756 21.8354 9.80341L19.7146 11.7334C18.7663 10.8905 17.5409 10.426 16.2721 10.4284C14.7843 10.423 13.3524 10.9944 12.2771 12.0226C11.7512 12.5252 11.3299 13.1268 11.0374 13.7928C10.7449 14.4588 10.5871 15.1761 10.5729 15.9034C10.5611 16.6306 10.6937 17.3528 10.9629 18.0284C11.2321 18.704 11.6326 19.3195 12.1413 19.8392C13.1814 20.9017 14.5926 21.5199 16.0788 21.5642H16.1979C17.3729 21.6242 18.5313 21.2692 19.4621 20.5642C20.3884 19.8663 21.0312 18.8571 21.2721 17.7226L21.3079 17.6251H16.1838V14.7834H24.2488C24.3115 15.2984 24.3393 15.8148 24.3321 16.3326C24.2496 21.1167 20.9846 24.3326 16.2104 24.3326L16.0313 24.3317Z" fill="#101F5A"/>
</svg>
