<svg width="24" height="24" viewBox="0 0 24 24" fill="none" xmlns="http://www.w3.org/2000/svg">
<path d="M9.00105 15.0014L15.0011 9.00132M11.0011 6.00128L11.4641 5.46527C12.4019 4.52759 13.6738 4.00085 15 4.00095C16.3262 4.00104 17.598 4.52795 18.5357 5.46577C19.4734 6.40359 20.0001 7.67549 20 9.00167C19.9999 10.3279 19.473 11.5997 18.5352 12.5374L18.0012 13.0014M13.0011 18.0014L12.6041 18.5354C11.6551 19.4732 10.3747 19.999 9.04055 19.999C7.7064 19.999 6.42602 19.4732 5.47701 18.5354C5.00911 18.0732 4.63763 17.5226 4.38409 16.9157C4.13055 16.3088 4 15.6576 4 14.9999C4 14.3422 4.13055 13.691 4.38409 13.0841C4.63763 12.4772 5.00911 11.9266 5.47701 11.4643L6.00101 11.0013" stroke="#111111" stroke-width="3" stroke-linecap="round" stroke-linejoin="round"/>
</svg>
