<svg width="50" height="80" viewBox="0 0 50 80" fill="none" xmlns="http://www.w3.org/2000/svg">
<path d="M11.2574 42.612C10.1054 42.612 9.22941 42.396 8.62941 41.964C8.02941 41.532 7.72941 40.944 7.72941 40.2C7.72941 39.552 7.94541 39.048 8.37741 38.688C8.83341 38.328 9.36141 38.148 9.96141 38.148C10.5854 38.148 11.1254 38.28 11.5814 38.544C12.0614 38.808 12.5174 39.252 12.9494 39.876L13.4174 40.704C13.5854 40.872 13.7774 40.944 13.9934 40.92C14.2094 40.896 14.3654 40.764 14.4614 40.524C14.6054 40.044 14.7014 39.396 14.7494 38.58C14.8214 37.74 14.8574 36.732 14.8574 35.556C14.8574 34.116 14.8214 32.244 14.7494 29.94C14.7014 27.636 14.6414 24.684 14.5694 21.084C14.5454 20.58 14.4374 20.172 14.2454 19.86C14.0774 19.548 13.7774 19.32 13.3454 19.176L12.5534 18.96V18.204H21.7334V18.96L20.9774 19.176C20.5214 19.32 20.2094 19.536 20.0414 19.824C19.8974 20.112 19.8254 20.496 19.8254 20.976V28.032C19.8254 30.36 19.7294 32.268 19.5374 33.756C19.3454 35.244 19.0214 36.528 18.5654 37.608C17.9654 39.24 16.9934 40.488 15.6494 41.352C14.3294 42.192 12.8654 42.612 11.2574 42.612Z" fill="#F7F8FA"/>
<path d="M24.4124 58.8748V58.1188L25.4564 57.8668C25.9364 57.7468 26.2724 57.5428 26.4644 57.2548C26.6564 56.9668 26.7644 56.5828 26.7884 56.1028V49.5868L20.9924 37.7428C20.7524 37.2628 20.5244 36.9028 20.3084 36.6628C20.0924 36.4228 19.7804 36.2308 19.3724 36.0868L18.7244 35.8348V35.0788H28.2644V35.8348L27.6164 36.0508C27.0884 36.2188 26.8004 36.4948 26.7524 36.8788C26.7044 37.2388 26.8124 37.7068 27.0764 38.2828L31.1804 47.3548L35.6084 38.0308C35.8244 37.5988 35.9204 37.1788 35.8964 36.7708C35.8724 36.3628 35.6204 36.0988 35.1404 35.9788L34.6364 35.8348V35.0788H39.3524V35.8348L38.6324 36.0508C38.1524 36.1948 37.8044 36.4108 37.5884 36.6988C37.3964 36.9868 37.1924 37.3708 36.9764 37.8508L31.9724 48.2548V56.1028C31.9724 57.0868 32.4044 57.6748 33.2684 57.8668L34.3484 58.1188V58.8748H24.4124Z" fill="#F7F8FA"/>
</svg>
