<svg width="24" height="24" viewBox="0 0 24 24" fill="none" xmlns="http://www.w3.org/2000/svg">
<path d="M21.7098 20.2896L20.2898 21.7096C20.1025 21.8959 19.849 22.0004 19.5848 22.0004C19.3206 22.0004 19.0672 21.8959 18.8798 21.7096L6.99982 9.84963C6.67465 9.94396 6.33834 9.99441 5.99982 9.99963C5.36312 9.99918 4.73573 9.84674 4.16981 9.555C3.60388 9.26325 3.11578 8.84063 2.74608 8.32226C2.37638 7.8039 2.13576 7.20477 2.04422 6.57468C1.95269 5.9446 2.01289 5.30177 2.21982 4.69963L4.75982 7.23963L5.28982 6.70963L6.70982 5.28963L7.23982 4.75963L4.69982 2.21963C5.30195 2.01271 5.94478 1.95251 6.57486 2.04404C7.20495 2.13557 7.80408 2.37619 8.32244 2.7459C8.84081 3.1156 9.26343 3.6037 9.55518 4.16962C9.84692 4.73555 9.99936 5.36294 9.99982 5.99963C9.99459 6.33816 9.94414 6.67447 9.84982 6.99963L21.7098 18.8796C21.8961 19.067 22.0006 19.3204 22.0006 19.5846C22.0006 19.8488 21.8961 20.1023 21.7098 20.2896ZM2.28982 18.8796C2.10357 19.067 1.99902 19.3204 1.99902 19.5846C1.99902 19.8488 2.10357 20.1023 2.28982 20.2896L3.70982 21.7096C3.89718 21.8959 4.15063 22.0004 4.41482 22.0004C4.679 22.0004 4.93245 21.8959 5.11982 21.7096L10.5898 16.2496L7.75982 13.4196M19.9998 1.99963L15.9998 3.99963V5.99963L13.8298 8.16963L15.8298 10.1696L17.9998 7.99963H19.9998L21.9998 3.99963L19.9998 1.99963Z" fill="#111111"/>
</svg>
