<svg width="48" height="48" viewBox="0 0 48 48" fill="none" xmlns="http://www.w3.org/2000/svg">
<path d="M36.75 0H11.25C5.0368 0 0 5.0368 0 11.25V36.75C0 42.9632 5.0368 48 11.25 48H36.75C42.9632 48 48 42.9632 48 36.75V11.25C48 5.0368 42.9632 0 36.75 0Z" fill="#242938"/>
<path d="M42.75 34.3006C42.2042 34.5075 41.6015 34.5071 41.0559 34.2996C40.5103 34.0921 40.0597 33.6919 39.7892 33.1747C38.0899 30.6309 36.2134 28.2018 34.4098 25.7206L33.6278 24.6781C31.4801 27.5555 29.3325 30.3181 27.3726 33.1852C27.1173 33.6795 26.691 34.0641 26.1732 34.2675C25.6553 34.4708 25.0812 34.4789 24.5578 34.2903L32.6166 23.4793L25.1207 13.7105C25.6603 13.5157 26.2506 13.513 26.7919 13.703C27.3332 13.8929 27.7924 14.2638 28.092 14.753C29.8329 17.297 31.7618 19.7261 33.6799 22.3012C35.6087 19.7469 37.5165 17.3073 39.2992 14.7843C39.5559 14.298 39.9824 13.923 40.4976 13.7308C41.0128 13.5385 41.5807 13.5425 42.0932 13.7418L39.1845 17.5993C37.8814 19.3194 36.5991 21.05 35.2438 22.7285C35.1346 22.8263 35.0472 22.946 34.9874 23.0799C34.9276 23.2137 34.8967 23.3586 34.8967 23.5052C34.8967 23.6518 34.9276 23.7968 34.9874 23.9306C35.0472 24.0645 35.1346 24.1842 35.2438 24.282C37.7355 27.5868 40.2062 30.902 42.75 34.3006ZM5.25 23.3437C5.469 22.3012 5.60438 21.1648 5.90681 20.1015C7.71038 13.6899 15.0602 11.0208 20.1165 14.993C23.0773 17.318 23.8176 20.6124 23.6717 24.3238H6.99112C6.72 30.9543 11.5052 34.9576 17.6248 32.9143C18.6175 32.5592 19.5062 31.9625 20.2106 31.178C20.915 30.3935 21.4129 29.4459 21.6594 28.4208C21.9827 27.3783 22.5039 27.2011 23.4943 27.5034C23.3312 28.7726 22.8824 29.9883 22.1818 31.059C21.4812 32.1298 20.547 33.0279 19.4494 33.6856C17.6358 34.6776 15.5551 35.0706 13.5047 34.8084C11.4543 34.5463 9.53928 33.6424 8.03363 32.2261C6.54403 30.5512 5.64334 28.435 5.469 26.2003C5.469 25.8459 5.33344 25.4913 5.2605 25.1578C5.2536 24.5531 5.2501 23.9484 5.25 23.3437ZM7.01194 22.8954H22.0974C22.0035 18.0894 18.9697 14.6803 14.9248 14.6491C10.4211 14.5865 7.19962 17.9225 7.00144 22.8746L7.01194 22.8954Z" fill="white"/>
</svg>
