<svg width="51" height="48" viewBox="0 0 51 48" fill="none" xmlns="http://www.w3.org/2000/svg">
<g clip-path="url(#clip0_47_992)">
<path d="M38.4156 0H11.7599C5.26507 0 0 5.0368 0 11.25V36.75C0 42.9632 5.26507 48 11.7599 48H38.4156C44.9104 48 50.1754 42.9632 50.1754 36.75V11.25C50.1754 5.0368 44.9104 0 38.4156 0Z" fill="white"/>
<mask id="mask0_47_992" style="mask-type:luminance" maskUnits="userSpaceOnUse" x="11" y="5" width="28" height="38">
<path d="M11.9561 5.25H38.0943V42.75H11.9561V5.25Z" fill="white"/>
</mask>
<g mask="url(#mask0_47_992)">
<path d="M18.4914 42.75C22.0978 42.75 25.0246 39.9501 25.0246 36.5001V30.2499H18.4914C14.885 30.2499 11.958 33.0501 11.958 36.5001C11.958 39.9501 14.885 42.75 18.4914 42.75Z" fill="#0ACF83"/>
<path d="M11.958 24C11.958 20.55 14.885 17.7501 18.4914 17.7501H25.0246V30.2499H18.4914C14.885 30.2499 11.958 27.45 11.958 24Z" fill="#A259FF"/>
<path d="M11.958 11.4999C11.958 8.04994 14.885 5.25 18.4914 5.25H25.0246V17.7501H18.4914C14.885 17.7501 11.958 14.9499 11.958 11.4999Z" fill="#F24E1E"/>
<path d="M25.0244 5.25H31.5576C35.164 5.25 38.091 8.04994 38.091 11.4999C38.091 14.9499 35.164 17.7501 31.5576 17.7501H25.0244V5.25Z" fill="#FF7262"/>
<path d="M38.091 24C38.091 27.45 35.164 30.2499 31.5576 30.2499C27.9512 30.2499 25.0244 27.45 25.0244 24C25.0244 20.55 27.9512 17.7501 31.5576 17.7501C35.164 17.7501 38.091 20.55 38.091 24Z" fill="#1ABCFE"/>
</g>
</g>
<defs>
<clipPath id="clip0_47_992">
<rect width="50.1754" height="48" fill="white"/>
</clipPath>
</defs>
</svg>
