<svg width="48" height="48" viewBox="0 0 48 48" fill="none" xmlns="http://www.w3.org/2000/svg">
<g clip-path="url(#clip0_31_123)">
<path d="M36.75 0H11.25C5.0368 0 0 5.0368 0 11.25V36.75C0 42.9632 5.0368 48 11.25 48H36.75C42.9632 48 48 42.9632 48 36.75V11.25C48 5.0368 42.9632 0 36.75 0Z" fill="#F0DB4F"/>
<path d="M12.6213 40.1123L16.2944 37.8892C17.0032 39.1457 17.6478 40.2088 19.1941 40.2088C20.6763 40.2088 21.6108 39.6291 21.6108 37.3738V22.0367H26.1217V37.4376C26.1217 42.1095 23.383 44.2361 19.3874 44.2361C15.779 44.2361 13.6844 42.3673 12.6211 40.1119M28.5717 39.6289L32.2445 37.5024C33.2114 39.0814 34.468 40.2412 36.691 40.2412C38.5602 40.2412 39.752 39.3067 39.752 38.0179C39.752 36.4714 38.5276 35.9235 36.4655 35.0216L35.338 34.5381C32.0836 33.1528 29.9247 31.4128 29.9247 27.7397C29.9247 24.3564 32.5025 21.7787 36.5302 21.7787C39.3978 21.7787 41.4599 22.7777 42.9419 25.3875L39.4298 27.6429C38.6564 26.2575 37.819 25.7098 36.5302 25.7098C35.209 25.7098 34.3713 26.5476 34.3713 27.6429C34.3713 28.9961 35.209 29.544 37.1422 30.3819L38.2698 30.8651C42.104 32.5086 44.2628 34.1837 44.2628 37.9534C44.2628 42.0135 41.0731 44.2365 36.7878 44.2365C32.5992 44.2365 29.8927 42.2389 28.5717 39.6289Z" fill="#323330"/>
</g>
<defs>
<clipPath id="clip0_31_123">
<rect width="48" height="48" fill="white"/>
</clipPath>
</defs>
</svg>
