<svg width="48" height="48" viewBox="0 0 48 48" fill="none" xmlns="http://www.w3.org/2000/svg">
<rect width="48" height="48" rx="12" fill="white"/>
<path fill-rule="evenodd" clip-rule="evenodd" d="M30.7609 18.0409C31.2123 19.3467 31.5374 20.6799 31.6443 22.0616C31.777 23.7759 31.7163 25.478 31.3549 27.1641C31.345 27.2105 31.3242 27.2541 31.3088 27.2991C31.1954 27.2994 31.0798 27.2853 30.969 27.3025C30.0327 27.4495 29.0973 27.602 28.1619 27.7536C27.1949 27.9102 26.2266 28.0607 25.2613 28.2281C24.9193 28.2871 24.496 28.2165 24.358 28.6896C24.354 28.7025 24.3146 28.7048 24.2919 28.7121L24.3385 25.8852L24.291 19.0644L24.7416 18.987C25.4785 18.8664 26.2153 18.744 26.9528 18.6267C27.8328 18.487 28.7137 18.3511 29.5943 18.2147C29.9827 18.1542 30.3716 18.0988 30.7609 18.0409Z" fill="#439934"/>
<path fill-rule="evenodd" clip-rule="evenodd" d="M23.3618 36.9527C22.8865 36.544 22.3945 36.1534 21.9389 35.7236C19.4873 33.4112 17.694 30.6895 16.8109 27.4082C16.5676 26.5051 16.4053 25.5874 16.3533 24.6542C16.3167 24.0011 16.2639 23.3421 16.31 22.6925C16.4329 20.9645 16.6826 19.2531 17.1895 17.5886L17.2173 17.5498C17.2665 17.6153 17.3374 17.6733 17.3624 17.7472C17.857 19.2041 18.3485 20.662 18.8367 22.121C20.3718 26.7053 21.9049 31.2908 23.4425 35.8741C23.4726 35.9635 23.5505 36.0369 23.6065 36.1176L23.3618 36.9527Z" fill="#45A538"/>
<path fill-rule="evenodd" clip-rule="evenodd" d="M30.7604 18.0409C30.3712 18.0988 29.9819 18.1542 29.5935 18.2141C28.7129 18.3505 27.832 18.4864 26.952 18.6262C26.2146 18.7434 25.4777 18.8658 24.7408 18.9864L24.2903 19.0638L24.2869 18.7699C24.272 18.5283 24.2464 18.287 24.2436 18.0454C24.2242 16.5047 24.2121 14.964 24.1929 13.4233C24.1811 12.4589 24.1634 11.4948 24.1437 10.5307C24.1316 9.9316 24.1187 9.33225 24.0917 8.73403C24.0771 8.41257 24.0253 8.09278 24.0042 7.77132C23.9924 7.58653 24.0087 7.40035 24.0124 7.21472C24.2422 7.65994 24.4669 8.10853 24.7031 8.55038C25.0764 9.249 25.6709 9.76369 26.2061 10.3253C28.322 12.545 29.8241 15.1257 30.7604 18.0409Z" fill="#46A037"/>
<path fill-rule="evenodd" clip-rule="evenodd" d="M24.2916 28.7117C24.3144 28.7044 24.3541 28.7022 24.3577 28.6892C24.4958 28.2162 24.9191 28.2868 25.2611 28.2277C26.2264 28.0606 27.1947 27.9099 28.1616 27.7532C29.0971 27.6016 30.0325 27.4492 30.9688 27.3021C31.0796 27.2847 31.1952 27.299 31.3086 27.2987C31.1336 27.9231 30.9958 28.561 30.7739 29.1682C30.5219 29.857 30.217 30.5292 29.8933 31.1881C29.409 32.1712 28.8092 33.093 28.1065 33.934C27.5668 34.5831 26.9652 35.183 26.3622 35.7756C26.0289 36.1033 25.636 36.3702 25.2704 36.6646L25.1756 36.6L24.8342 36.308L24.4809 35.5337C24.2396 34.6305 24.108 33.7015 24.0889 32.7668L24.0953 32.609L24.1434 31.9267C24.1595 31.6938 24.1808 31.4612 24.1907 31.2278C24.227 30.3891 24.2585 29.5504 24.2916 28.7117Z" fill="#409433"/>
<path fill-rule="evenodd" clip-rule="evenodd" d="M24.291 28.7118C24.2578 29.5505 24.2263 30.3891 24.1906 31.2281C24.1808 31.4615 24.1594 31.6941 24.1434 31.927L23.9282 32.0083C23.4504 30.6015 22.9722 29.2096 22.5045 27.814C21.7311 25.5052 20.9669 23.1928 20.1946 20.8835C19.5708 19.0195 18.9427 17.1569 18.3103 15.2959C18.2807 15.2087 18.1958 15.1406 18.1367 15.0636L19.5137 12.5317C19.561 12.6139 19.6234 12.6906 19.6532 12.779C20.291 14.6639 20.9255 16.55 21.5567 18.4371C22.3768 20.8925 23.1919 23.3497 24.0115 25.8053C24.0441 25.9035 24.0981 25.9941 24.1496 26.104L24.338 25.8846L24.291 28.7118Z" fill="#4FAA41"/>
<path fill-rule="evenodd" clip-rule="evenodd" d="M18.137 15.0638C18.1961 15.1409 18.2808 15.209 18.3106 15.2962C18.943 17.1572 19.5712 19.0198 20.195 20.8837C20.9673 23.1931 21.7314 25.5055 22.5049 27.8143C22.9723 29.2096 23.4504 30.6018 23.9285 32.0086L24.1437 31.9273L24.0956 32.6096L24.052 32.7668C23.9772 33.5138 23.9142 34.2625 23.8231 35.0078C23.7772 35.3813 23.6799 35.7481 23.606 36.1179C23.5503 36.0372 23.4721 35.9638 23.442 35.8744C21.9044 31.2908 20.3713 26.7056 18.8362 22.1212C18.3479 20.6623 17.8564 19.2044 17.3619 17.7475C17.3369 17.6736 17.2663 17.6156 17.2168 17.5501L18.137 15.0638Z" fill="#4AA73C"/>
<path fill-rule="evenodd" clip-rule="evenodd" d="M24.338 25.8849L24.1495 26.1043C24.098 25.9943 24.044 25.9035 24.0114 25.8056C23.1921 23.35 22.3768 20.8927 21.5567 18.4374C20.9254 16.5503 20.2909 14.6642 19.6532 12.7792C19.6236 12.6909 19.5612 12.6139 19.5137 12.532L21.2166 10.2919C21.2704 10.3636 21.3469 10.4274 21.3747 10.5082C21.8472 11.8923 22.3162 13.2777 22.7818 14.6645C23.2169 15.9593 23.6455 17.2562 24.0857 18.5494C24.1152 18.636 24.2179 18.6973 24.2865 18.7704L24.2899 19.0643C24.3062 21.3376 24.3222 23.6111 24.338 25.8849Z" fill="#57AE47"/>
<path fill-rule="evenodd" clip-rule="evenodd" d="M24.2876 18.7699C24.219 18.6968 24.1163 18.6355 24.0868 18.5489C23.6466 17.2557 23.218 15.9588 22.7829 14.6639C22.3174 13.2774 21.8483 11.8919 21.3758 10.5076C21.348 10.4269 21.2715 10.3631 21.2178 10.2914C21.7716 9.74911 22.3082 9.18745 22.8842 8.67023C23.3963 8.21067 23.8081 7.71792 23.8269 6.99173C23.8278 6.96164 23.8435 6.93154 23.8677 6.84717L24.0137 7.21448C24.01 7.40039 23.9934 7.58629 24.0055 7.77107C24.0266 8.09254 24.0784 8.41232 24.093 8.73379C24.12 9.33201 24.1329 9.93136 24.145 10.5304C24.1644 11.4945 24.1821 12.4587 24.1942 13.4231C24.2131 14.9638 24.2255 16.5044 24.2449 18.0451C24.2471 18.2873 24.2724 18.5283 24.2876 18.7699Z" fill="#60B24F"/>
<path fill-rule="evenodd" clip-rule="evenodd" d="M23.606 36.1177C23.68 35.7479 23.7773 35.3808 23.8231 35.0076C23.9145 34.2626 23.9773 33.5136 24.0521 32.7666L24.0706 32.7638L24.0892 32.7669C24.1083 33.7016 24.24 34.6306 24.4813 35.5338C24.4318 35.5991 24.3617 35.6573 24.3356 35.731C24.1311 36.3075 23.9385 36.8886 23.7329 37.4652C23.7047 37.5439 23.6265 37.6052 23.5714 37.6744L23.3613 36.9527L23.606 36.1177Z" fill="#A9AA88"/>
<path fill-rule="evenodd" clip-rule="evenodd" d="M23.5713 37.6747C23.6264 37.6055 23.7049 37.5442 23.7327 37.4654C23.9383 36.8888 24.1313 36.3081 24.3354 35.7312C24.3616 35.6575 24.4314 35.5993 24.4811 35.5341L24.8341 36.3086C24.7644 36.4076 24.6682 36.4968 24.6294 36.607L23.9532 38.5924C23.9254 38.672 23.8303 38.7282 23.7668 38.7954L23.5713 37.6747Z" fill="#B6B598"/>
<path fill-rule="evenodd" clip-rule="evenodd" d="M23.7666 38.7952C23.8304 38.7282 23.9252 38.6717 23.9531 38.5921L24.6292 36.6068C24.6677 36.4968 24.7642 36.4073 24.8339 36.3083L25.1757 36.6C25.0106 36.7631 24.9189 36.9516 24.974 37.1898L24.8702 37.5295C24.823 37.5878 24.7546 37.6384 24.7313 37.705C24.4953 38.3809 24.27 39.0604 24.0324 39.7362C24.0023 39.822 23.9188 39.8892 23.8597 39.9646C23.8289 39.5748 23.7979 39.185 23.7666 38.7952Z" fill="#C2C1A7"/>
<path fill-rule="evenodd" clip-rule="evenodd" d="M23.8605 39.9646C23.9193 39.8889 24.0028 39.8217 24.0332 39.7362C24.2709 39.0607 24.4961 38.3812 24.7321 37.705C24.7555 37.6387 24.8235 37.5878 24.8711 37.5295L24.7279 39.0891C24.6896 39.1332 24.6342 39.1718 24.616 39.2232C24.4542 39.6772 24.3018 40.1345 24.1395 40.5884C24.1061 40.6821 24.0419 40.7648 23.9919 40.8522C23.9474 40.794 23.8678 40.7378 23.8642 40.677C23.8498 40.4405 23.8597 40.2023 23.8605 39.9646Z" fill="#CECDB7"/>
<path fill-rule="evenodd" clip-rule="evenodd" d="M23.9912 40.8523C24.0413 40.7645 24.1054 40.6818 24.1389 40.5885C24.3014 40.1348 24.4536 39.6775 24.6153 39.2233C24.6336 39.1718 24.6893 39.1335 24.7272 39.0891L24.7306 40.1129L24.3881 40.9915L23.9912 40.8523Z" fill="#DBDAC7"/>
<path fill-rule="evenodd" clip-rule="evenodd" d="M24.3877 40.9917L24.7303 40.113L24.8009 41.1525L24.3877 40.9917Z" fill="#EBE9DC"/>
<path fill-rule="evenodd" clip-rule="evenodd" d="M24.9741 37.1901C24.919 36.9519 25.0104 36.7632 25.1757 36.6003L25.2705 36.665L24.9741 37.1901Z" fill="#CECDB7"/>
<path fill-rule="evenodd" clip-rule="evenodd" d="M24.0889 32.7671L24.0703 32.764L24.0518 32.7668L24.0954 32.6096L24.0889 32.7671Z" fill="#4FAA41"/>
</svg>
