<svg width="48" height="48" viewBox="0 0 48 48" fill="none" xmlns="http://www.w3.org/2000/svg">
<rect width="48" height="48" rx="12" fill="black"/>
<rect width="48" height="48" rx="24" fill="white"/>
<path d="M22.428 0.0125692L21.7008 0.0773691C14.8848 0.691769 8.4984 4.37097 4.452 10.023C2.21631 13.127 0.76313 16.725 0.216 20.511C0.0239998 21.8262 0 22.215 0 24.003C0 25.791 0.0239998 26.1798 0.216 27.4998C1.5192 36.5118 7.9344 44.0838 16.632 46.8894C18.192 47.391 19.8336 47.7318 21.7008 47.9406C22.428 48.0198 25.572 48.0198 26.2992 47.9406C29.5224 47.5806 32.2512 46.7862 34.9464 45.411C35.3592 45.1998 35.4384 45.1422 35.3832 45.0966C35.3448 45.0678 33.5856 42.7086 31.4736 39.855L27.636 34.671L22.8264 27.555C21.2276 25.1745 19.614 22.8041 17.9856 20.4438C17.9664 20.439 17.9472 23.5998 17.9376 27.4614C17.9232 34.2222 17.9184 34.4934 17.8344 34.6542C17.7516 34.8409 17.6054 34.9923 17.4216 35.0814C17.2704 35.1534 17.1408 35.1702 16.4328 35.1702H15.6192L15.4032 35.0334C15.2727 34.9462 15.1656 34.8284 15.0912 34.6902L14.9904 34.479L15 25.0734L15.0144 15.663L15.1584 15.4806C15.2551 15.3634 15.3732 15.2657 15.5064 15.1926C15.6984 15.099 15.7752 15.0894 16.5864 15.0894C17.544 15.0894 17.7024 15.1278 17.952 15.4014C18.024 15.4734 20.6256 19.3974 23.7408 24.1206L33.2112 38.463L37.0104 44.2182L37.2024 44.0934C38.9064 42.9846 40.7064 41.4102 42.1344 39.7662C45.1586 36.3062 47.1203 32.047 47.784 27.4998C47.976 26.1798 48 25.791 48 24.003C48 22.2174 47.976 21.8262 47.784 20.5086C46.4808 11.4966 40.0656 3.92457 31.368 1.11897C29.7413 0.601761 28.0663 0.25116 26.3688 0.0725694C25.92 0.0245694 22.8168 -0.0234309 22.428 0.0125692ZM32.2536 14.5278C32.4792 14.6406 32.6616 14.8566 32.7264 15.0798C32.7648 15.2022 32.7744 17.811 32.7648 23.6886L32.7504 32.1246L31.2624 29.8446L29.772 27.5646V21.4326C29.772 17.4678 29.7912 15.2406 29.82 15.1326C29.8536 15.0081 29.9119 14.8917 29.9915 14.7902C30.0711 14.6888 30.1703 14.6044 30.2832 14.5422C30.4752 14.4438 30.5472 14.4342 31.2816 14.4342C31.9776 14.4342 32.0976 14.4438 32.2536 14.5278Z" fill="black"/>
</svg>
