<svg width="48" height="48" viewBox="0 0 48 48" fill="none" xmlns="http://www.w3.org/2000/svg">
<g clip-path="url(#clip0_31_141)">
<path d="M36.75 0H11.25C5.0368 0 0 5.0368 0 11.25V36.75C0 42.9632 5.0368 48 11.25 48H36.75C42.9632 48 48 42.9632 48 36.75V11.25C48 5.0368 42.9632 0 36.75 0Z" fill="#242938"/>
<path d="M24 27.5534C25.932 27.5534 27.498 25.9872 27.498 24.0554C27.498 22.1236 25.932 20.5574 24 20.5574C22.068 20.5574 20.502 22.1236 20.502 24.0554C20.502 25.9872 22.0681 27.5534 24 27.5534Z" fill="#00D8FF"/>
<path d="M24.0004 16.9431C28.6969 16.9431 33.0598 17.617 36.3495 18.7497C40.3131 20.1141 42.75 22.1824 42.75 24.0554C42.75 26.0071 40.1674 28.2044 35.9109 29.6146C32.6931 30.6807 28.4586 31.2372 24.0004 31.2372C19.4295 31.2372 15.1011 30.7148 11.8468 29.6027C7.72969 28.1956 5.25 25.9699 5.25 24.0554C5.25 22.1976 7.57687 20.1452 11.4847 18.7829C14.7866 17.6316 19.2572 16.9431 23.9996 16.9431H24.0004Z" stroke="#00D8FF" stroke-width="2"/>
<path d="M17.8081 20.5196C20.1545 16.4512 22.9176 13.0084 25.5423 10.7246C28.7043 7.97269 31.7136 6.89494 33.3359 7.83037C35.0266 8.80537 35.6399 12.1406 34.7352 16.5322C34.0518 19.8523 32.4179 23.7984 30.1906 27.6606C27.907 31.6202 25.2923 35.1088 22.7035 37.3716C19.4277 40.2351 16.2606 41.2714 14.6022 40.3149C12.9929 39.3876 12.3775 36.3461 13.1496 32.2802C13.802 28.8446 15.439 24.6279 17.8073 20.5196H17.8081Z" stroke="#00D8FF" stroke-width="2"/>
<path d="M17.8149 27.6709C15.4619 23.607 13.8599 19.4929 13.1913 16.0785C12.3864 11.9645 12.9554 8.81924 14.5764 7.88099C16.2656 6.90299 19.4611 8.03736 22.814 11.0145C25.349 13.2652 27.9521 16.6509 30.1858 20.5093C32.4759 24.4652 34.1923 28.473 34.8599 31.8457C35.7048 36.114 35.021 39.3752 33.3641 40.3342C31.7564 41.265 28.8144 40.2797 25.6773 37.58C23.0268 35.2993 20.1911 31.7752 17.8149 27.6709Z" stroke="#00D8FF" stroke-width="2"/>
</g>
<defs>
<clipPath id="clip0_31_141">
<rect width="48" height="48" fill="white"/>
</clipPath>
</defs>
</svg>
