<svg width="48" height="48" viewBox="0 0 48 48" fill="none" xmlns="http://www.w3.org/2000/svg">
<rect width="48" height="48" rx="12" fill="#CC6699"/>
<rect width="48" height="48" rx="24" fill="#CC6699"/>
<path d="M37.1787 12.0242C36.2277 8.29525 30.0432 7.07425 24.1902 9.14725C20.5245 10.3788 17.1379 12.3214 14.2242 14.8637C11.0007 17.8787 10.4862 20.5037 10.6977 21.6002C11.4477 25.4702 16.7472 27.9992 18.9267 29.8757V29.8862C18.2847 30.2027 13.5807 32.5862 12.4767 35.0162C11.3157 37.5842 12.6612 39.4262 13.5537 39.6737C14.8936 39.9963 16.301 39.8914 17.5783 39.3735C18.8556 38.8557 19.9387 37.9509 20.6757 36.7862C21.2852 35.8428 21.6665 34.7703 21.7894 33.6539C21.9123 32.5374 21.7734 31.4077 21.3837 30.3542C22.4332 30.086 23.5248 30.0234 24.5982 30.1698C28.2822 30.6002 29.0052 32.8997 28.8672 33.8627C28.8023 34.2055 28.6643 34.5303 28.4627 34.815C28.261 35.0998 28.0005 35.3377 27.6987 35.5127C27.4407 35.6732 27.3612 35.7272 27.3837 35.8472C27.4152 36.0197 27.5337 36.0137 27.7542 35.9762C28.3078 35.8019 28.7956 35.4639 29.1533 35.0068C29.511 34.5498 29.7219 33.995 29.7582 33.4157C29.8467 31.1657 27.6852 28.6367 23.8572 28.7012C22.7453 28.6685 21.6357 28.8206 20.5737 29.1512L20.4117 28.9712C18.0447 26.4467 13.6707 24.6602 13.8552 21.2657C13.9227 20.0312 14.3517 16.7822 22.2552 12.8402C28.7352 9.61075 33.9222 10.5002 34.8192 12.4697C36.1002 15.2837 32.0472 20.5112 25.3182 21.2657C24.5744 21.4167 23.8062 21.3983 23.0706 21.2119C22.3349 21.0254 21.6507 20.6757 21.0687 20.1887C20.7147 19.7987 20.6622 19.7822 20.5302 19.8542C20.3157 19.9727 20.4522 20.3177 20.5302 20.5217C20.7879 20.9861 21.1357 21.3943 21.5532 21.7224C21.9708 22.0506 22.4496 22.2921 22.9617 22.4327C25.6074 23.0068 28.3666 22.7339 30.8487 21.6527C34.9302 20.0792 38.1132 15.6917 37.1787 12.0242ZM19.8327 31.0307C20.1291 32.058 20.114 33.1501 19.7892 34.1687C19.7542 34.2747 19.7157 34.3797 19.6737 34.4837C19.6317 34.5877 19.5862 34.6877 19.5372 34.7837C19.2831 35.2993 18.9562 35.7757 18.5667 36.1982C17.3472 37.5287 15.6417 38.0327 14.9112 37.6082C14.1222 37.1507 14.5167 35.2743 15.9312 33.7787C17.0184 32.7044 18.2714 31.812 19.6422 31.1357L19.8327 31.0307Z" fill="white"/>
</svg>
